<svg role="img" viewBox="0 0 162 42" xmlns="http://www.w3.org/2000/svg" fill="currentColor"><title>SoFi</title><g transform="matrix(1.954,0,0,1.937,-0.977,-1.872)"><path d="M 24.7,7.1 C 20.3,7.1 16.7,10.7 16.7,15.1 C 16.7,19.5 20.3,23.1 24.7,23.1 C 29.1,23.1 33.1,19.5 33.1,15.1 C 33.1,10.7 29.1,7.1 24.7,7.1 z M 28.6,15 C 28.6,17.2 26.9,19 24.8,19 C 22.7,19 21,17.2 21,15 C 21,12.8 22.7,11 24.8,11 C 26.9,11 28.6,12.8 28.6,15 z M 52.7,7.4 C 52.6,7.3 52.5,7.3 52.4,7.3 H 49.2 C 49,7.3 48.8,7.5 48.8,7.7 V 22.2 C 48.8,22.3 48.8,22.4 48.9,22.5 C 49,22.6 49.1,22.6 49.2,22.6 H 52.4 C 52.6,22.6 52.8,22.4 52.8,22.2 V 7.7 C 52.8,7.6 52.8,7.5 52.7,7.4 z M 50.8,5.4 C 52,5.4 53,4.4 53,3.2 C 53.1,2 52,1 50.8,1 C 49.6,1 48.6,2 48.6,3.2 C 48.6,4.5 49.6,5.4 50.8,5.4 z M 46.5,1.3 H 34.8 C 34.6,1.3 34.4,1.5 34.4,1.7 V 22.2 C 34.4,22.3 34.4,22.4 34.5,22.5 C 34.6,22.6 34.7,22.6 34.8,22.6 H 38 C 38.2,22.6 38.4,22.4 38.4,22.2 V 13.9 H 45.6 C 45.7,13.9 45.8,13.9 45.9,13.8 C 46,13.7 46,13.6 46,13.5 V 10.5 C 46,10.3 45.8,10.1 45.6,10.1 H 38.4 V 5.1 H 46.5 C 46.6,5.1 46.7,5.1 46.8,5 C 46.9,4.9 46.9,4.8 46.9,4.7 V 1.7 C 46.9,1.5 46.7,1.3 46.5,1.3 z M 9.2,10.2 C 6,8.8 5,8.2 5,7 C 5,5.4 6.5,4.9 7.9,4.9 C 9.4,4.9 11,5.7 11,7.9 C 11,8.1 11.1,8.2 11.3,8.2 H 14.8 C 14.9,8.2 15,8.1 15,7.9 C 15,3.9 12.1,1 7.9,1 C 3.7,1 1,3.4 1,7 C 1,11.3 4.2,12.6 7.3,13.8 L 7.5,13.9 C 10.4,15 11.4,15.5 11.4,16.9 C 11.4,18.8 9.4,19.1 8.3,19.1 C 6.2,19.1 4.6,17.6 4.6,15.6 V 15.4 C 4.6,15.2 4.5,15.1 4.3,15.1 H 0.8 C 0.7,15.1 0.5,15.2 0.5,15.4 V 15.7 C 0.5,20.1 3.7,23.1 8.2,23.1 C 12.5,23.1 15.4,20.6 15.4,17 C 15.5,13.3 13.6,12 9.2,10.2 z"/><circle cx="78.3" cy="12" r="3.5"/><circle cx="78.3" cy="19.5" r="3.5"/><circle cx="78.3" cy="4.5" r="3.5"/><circle cx="70.8" cy="4.5" r="3.5"/><circle cx="70.8" cy="12" r="3.5"/><circle cx="70.8" cy="19.5" r="3.5"/><circle cx="63.3" cy="4.5" r="3.5"/><circle cx="63.3" cy="12" r="3.5"/><circle cx="63.3" cy="19.5" r="3.5"/></g></svg>
